#!OML:ASF E:\motion texture\Top Level 1\Subject 1\Session 1\male.ASF
:FULLY-SPECIFIED
:DEGREES
295
root 2.18253 17.575 -4.33983 192.798 -70.1714 -176.233
lowerback 13.8115 0.926729 15.9366
upperback 3.32256 2.93884 9.7711
thorax -3.80576 0.917978 1.13544
lowerneck -14.711 -6.11815 -9.13036
upperneck -9.43373 -7.41887 3.13651
head -0.0994138 -3.74457 2.22053
rclavicle 2.22639e-014 -7.95139e-014
rhumerus -58.4488 -50.6625 -28.2173
rradius 20.7744
rwrist -12.7463
rhand -10.5408 -50.9994
rfingers 7.12502
rthumb 15.4628 -80.401
lclavicle 2.22639e-014 -7.95139e-014
lhumerus -38.8752 5.62021 74.4554
lradius 52.8361
lwrist -8.11375
lhand -13.0153 20.5491
lfingers 7.12502
lthumb 13.0785 50.119
rfemur -18.5815 4.55297 17.2186
rtibia 47.5414
rfoot 1.50346 -29.6975
rtoes -12.0708
lfemur -46.3329 2.8827 -20.1991
ltibia 27.362
lfoot -7.17836 3.70709
ltoes -10.3309
296
root 1.97756 17.5523 -4.36846 191.579 -70.4779 -175.761
lowerback 13.2423 1.02474 15.7992
upperback 3.17976 2.96832 9.70512
thorax -3.65302 0.950918 1.13758
lowerneck -14.5235 -6.25712 -9.24629
upperneck -8.85807 -7.54989 3.10344
head 0.0728808 -3.79573 2.2164
rclavicle -4.29375e-014 0
rhumerus -57.3069 -51.5711 -29.4232
rradius 20.9832
rwrist -13.4461
rhand -10.6407 -51.6433
rfingers 7.12502
rthumb 15.3666 -81.0523
lclavicle -4.29375e-014 0
lhumerus -38.833 5.72113 73.8669
lradius 53.0503
lwrist -8.08049
lhand -13.0965 20.6507
lfingers 7.12502
lthumb 13.0001 50.2256
rfemur -17.8924 4.74391 17.3875
rtibia 48.4467
rfoot 2.84815 -29.118
rtoes -11.8002
lfemur -45.5594 2.63829 -20.304
ltibia 27.7238
lfoot -7.06315 3.45095
ltoes -9.50494
297
root 1.77392 17.5307 -4.39595 190.39 -70.7873 -175.305
lowerback 12.6937 1.11727 15.6529
upperback 3.03775 2.99559 9.63179
thorax -3.51002 0.982295 1.13773
lowerneck -14.3401 -6.39456 -9.36002
upperneck -8.28797 -7.68175 3.07338
head 0.244134 -3.84914 2.21315
rclavicle -4.77083e-014 -1.08139e-013
rhumerus -55.7528 -52.3918 -31.0679
rradius 21.2647
rwrist -14.3341
rhand -10.7007 -52.2999
rfingers 7.12502
rthumb 15.3088 -81.7133
lclavicle -4.77083e-014 -1.08139e-013
lhumerus -38.7216 5.78217 73.3214
lradius 53.2589
lwrist -8.0455
lhand -13.1786 20.7505
lfingers 7.12502
lthumb 12.921 50.3305
rfemur -17.2845 4.91144 17.541
rtibia 49.381
rfoot 4.14825 -28.4477
rtoes -11.4167
lfemur -44.7734 2.39468 -20.4255
ltibia 28.142
lfoot -6.97267 3.18038
ltoes -8.65175
298
root 1.57187 17.5104 -4.42224 189.236 -71.1009 -174.868
lowerback 12.1662 1.20355 15.4977
upperback 2.89631 3.01981 9.55232
thorax -3.37762 1.01159 1.13706
lowerneck -14.1579 -6.5296 -9.4733
upperneck -7.72643 -7.81348 3.04533
head 0.412917 -3.90418 2.21088
rclavicle 7.4743e-014 3.18055e-015
rhumerus -53.7703 -53.0995 -33.1547
rradius 21.6229
rwrist -15.402
rhand -10.7215 -52.962
rfingers 7.12502
rthumb 15.2887 -82.3769
lclavicle 7.4743e-014 3.18055e-015
lhumerus -38.5467 5.80516 72.823
lradius 53.4612
lwrist -8.01055
lhand -13.2602 20.8472
lfingers 7.12502
lthumb 12.8424 50.4322
rfemur -16.7592 5.05562 17.6773
rtibia 50.3388
rfoot 5.38058 -27.7002
rtoes -10.927
lfemur -43.9751 2.15292 -20.5633
ltibia 28.6061
lfoot -6.90324 2.89578
ltoes -7.78035
299
root 1.3717 17.4916 -4.44723 188.122 -71.4214 -174.452
lowerback 11.6604 1.28308 15.3349
upperback 2.75453 3.04078 9.46694
thorax -3.25712 1.03858 1.1351
lowerneck -13.9797 -6.66223 -9.58396
upperneck -7.17336 -7.94511 3.01644
head 0.579592 -3.96092 2.20812
rclavicle 2.54444e-014 -3.81667e-014
rhumerus -51.3692 -53.6737 -35.6584
rradius 22.0591
rwrist -16.6247
rhand -10.696 -53.62
rfingers 7.12502
rthumb 15.3133 -83.0331
lclavicle 2.54444e-014 -3.81667e-014
lhumerus -38.3102 5.78855 72.3742
lradius 53.6559
lwrist -7.97684
lhand -13.3378 20.9463
lfingers 7.12502
lthumb 12.7676 50.5359
rfemur -16.319 5.17361 17.7944
rtibia 51.314
rfoot 6.5293 -26.8903
rtoes -10.3269
lfemur -43.1664 1.91303 -20.7186
ltibia 29.1061
lfoot -6.85303 2.59905
ltoes -6.89837
300
root 1.17363 17.4746 -4.47087 187.052 -71.7496 -174.062
lowerback 11.1767 1.35609 15.1652
upperback 2.61319 3.05873 9.37572
thorax -3.14798 1.06341 1.13146
lowerneck -13.8097 -6.79216 -9.69269
upperneck -6.62927 -8.07577 2.98763
head 0.744739 -4.01879 2.20518
rclavicle -4.6118e-014 -3.81667e-014
rhumerus -48.571 -54.0919 -38.542
rradius 22.575
rwrist -17.9806
rhand -10.6191 -54.2663
rfingers 7.12502
rthumb 15.3874 -83.6737
lclavicle -4.6118e-014 -3.81667e-014
lhumerus -38.0156 5.73326 71.9769
lradius 53.8439
lwrist -7.94388
lhand -13.4151 21.0416
lfingers 7.12502
lthumb 12.6931 50.6359
rfemur -15.9652 5.26442 17.8904
rtibia 52.3002
rfoot 7.58205 -26.0318
rtoes -9.63614
lfemur -42.3473 1.67459 -20.8906
ltibia 29.6303
lfoot -6.82183 2.2932
ltoes -6.00768
301
root 0.977793 17.4595 -4.49309 186.029 -72.0858 -173.696
lowerback 10.7165 1.42243 14.9901
upperback 2.4717 3.0739 9.27911
thorax -3.05146 1.08607 1.12554
lowerneck -13.645 -6.91896 -9.79936
upperneck -6.09674 -8.20515 2.95758
head 0.906978 -4.07757 2.20168
rclavicle 1.11319e-014 8.5875e-014
rhumerus -45.4078 -54.3172 -41.7618
rradius 23.1748
rwrist -19.46
rhand -10.5015 -54.8988
rfingers 7.12502
rthumb 15.5007 -84.2975
lclavicle 1.11319e-014 8.5875e-014
lhumerus -37.6702 5.64044 71.6331
lradius 54.027
lwrist -7.91444
lhand -13.489 21.137
lfingers 7.12502
lthumb 12.6218 50.7356
rfemur -15.6967 5.32853 17.9643
rtibia 53.2887
rfoot 8.52674 -25.1378
rtoes -8.89497
lfemur -41.5161 1.43795 -21.078
ltibia 30.1661
lfoot -6.80881 1.9808
ltoes -5.11856
